<?xml version="1.0" encoding="utf-8"?>
<!-- Generator: Adobe Illustrator 19.2.0, SVG Export Plug-In . SVG Version: 6.00 Build 0)  -->
<svg version="1.1" id="Layer_3" xmlns="http://www.w3.org/2000/svg" xmlns:xlink="http://www.w3.org/1999/xlink" x="0px" y="0px"
	 viewBox="0 0 34.2 34.8" style="enable-background:new 0 0 34.2 34.8;" xml:space="preserve">
<style type="text/css">
	.st0{fill:#113757;}
	.st1{fill:#4CB9E6;}
</style>
<g>
	<path class="st0" d="M13.6,23.7c-2.4-2-4.1-4.5-4.9-5.9L8,16.6c0.2-0.2,1.9-2.1,2.7-3c0.9-1.2-0.4-2.4-0.4-2.4S6.5,7.5,5.6,6.7
		S3.8,6.4,3.8,6.4C2,7.6,0.1,8.6,0,13.5c0,4.6,3.5,9.3,7.3,13c3.8,4.1,9,8.3,14,8.3c4.9-0.1,5.9-2,7.1-3.8c0,0,0.4-1-0.3-1.9
		c-0.7-0.9-4.5-4.7-4.5-4.7s-1.1-1.3-2.4-0.4c-0.9,0.7-2.6,2.2-3,2.6C18,26.6,15.3,25.1,13.6,23.7z"/>
	<g>
		<path class="st1" d="M19,2.6c7,0,12.7,5.7,12.7,12.7c0,4-1.9,7.7-4.9,10c0.6,0.6,1.3,1.3,1.8,1.8c3.4-2.8,5.6-7.1,5.6-11.8
			C34.2,6.9,27.4,0,19,0c-4.7,0-9,2.2-11.8,5.6C7.6,6,8.3,6.7,9,7.4C11.4,4.5,15,2.6,19,2.6z"/>
	</g>
	<g>
		<path class="st1" d="M18.8,18.4v1.9h-6.5c0.8-1.3,3.5-5.5,4.1-6.7c0.6-1,0.4-2.2-0.7-2.2c-1.3,0-1.5,1-1.4,2.1h-2.2
			c-0.2-2.3,0.8-3.8,3.6-3.8c2.9,0,4.4,2.4,2.6,5.2c-0.9,1.5-2.3,3.6-2.3,3.6H18.8z"/>
		<path class="st1" d="M28.1,18.3h-1.1v2h-1.9v-2h-5.3l3.6-8.6h2.2l-2.8,6.9h2.3l0-2.1h1.9v2.1h1.1L28.1,18.3L28.1,18.3z"/>
	</g>
</g>
</svg>
