<?xml version="1.0" encoding="utf-8"?>
<!-- Generator: Adobe Illustrator 19.2.0, SVG Export Plug-In . SVG Version: 6.00 Build 0)  -->
<svg version="1.1" id="Layer_3" xmlns="http://www.w3.org/2000/svg" xmlns:xlink="http://www.w3.org/1999/xlink" x="0px" y="0px"
	 viewBox="0 0 26.2 34.9" style="enable-background:new 0 0 26.2 34.9;" xml:space="preserve">
<style type="text/css">
	.st0{fill:#113757;}
	.st1{fill:#1BA5DE;}
</style>
<g>
	<path class="st0" d="M13.1,0C5.9,0,0,5.9,0,13.1c0,8.4,9.4,18.9,10.9,20.5c0.6,0.7,1.1,1.3,2.2,1.3s1.6-0.6,2.2-1.3
		c1.5-1.6,10.9-12.1,10.9-20.5C26.2,5.9,20.3,0,13.1,0z M13.1,21.8c-4.8,0-8.7-3.9-8.7-8.7s3.9-8.7,8.7-8.7s8.7,3.9,8.7,8.7
		S17.9,21.8,13.1,21.8z"/>
	<circle class="st1" cx="13.1" cy="13.1" r="4.4"/>
</g>
</svg>
