<?xml version="1.0" encoding="utf-8"?>
<!-- Generator: Adobe Illustrator 19.2.0, SVG Export Plug-In . SVG Version: 6.00 Build 0)  -->
<svg version="1.1" id="Layer_3" xmlns="http://www.w3.org/2000/svg" xmlns:xlink="http://www.w3.org/1999/xlink" x="0px" y="0px"
	 viewBox="0 0 35 35" style="enable-background:new 0 0 35 35;" xml:space="preserve">
<style type="text/css">
	.st0{fill:#113757;}
	.st1{fill:#1BA5DE;}
</style>
<g>
	<g>
		<path class="st0" d="M20.8,23.3c-0.2,0.1-1.5,1-3.2,1c-1.7,0-3-0.9-3.2-1L0,14.3v16.2c0,2.4,2,4.4,4.4,4.4h26.2
			c2.4,0,4.4-2,4.4-4.4V14.3L20.8,23.3z"/>
	</g>
	<path class="st1" d="M33.1,9.6L19.3,0.7c-1-0.6-2.7-0.6-3.7,0L1.9,9.6c-1,0.6-1,1.7,0,2.3l4.7,2.9v-4.1h21.8v4.1l4.7-2.9
		C34.1,11.3,34.1,10.3,33.1,9.6z"/>
	<path class="st1" d="M24,16.2c0,0.6-0.5,1.1-1.1,1.1H12c-0.6,0-1.1-0.5-1.1-1.1l0,0c0-0.6,0.5-1.1,1.1-1.1H23
		C23.6,15.1,24,15.6,24,16.2L24,16.2z"/>
	<path class="st1" d="M21.9,20.6c0,0.6-0.5,1.1-1.1,1.1h-6.6c-0.6,0-1.1-0.5-1.1-1.1l0,0c0-0.6,0.5-1.1,1.1-1.1h6.6
		C21.4,19.5,21.9,20,21.9,20.6L21.9,20.6z"/>
</g>
</svg>
