<?xml version="1.0" encoding="utf-8"?>
<!-- Generator: Adobe Illustrator 19.2.0, SVG Export Plug-In . SVG Version: 6.00 Build 0)  -->
<svg version="1.1" id="_1" xmlns="http://www.w3.org/2000/svg" xmlns:xlink="http://www.w3.org/1999/xlink" x="0px" y="0px"
	 viewBox="0 0 62 52.7" style="enable-background:new 0 0 62 52.7;" xml:space="preserve">
<style type="text/css">
	.st0{fill:#103756;}
	.st1{fill:#233642;}
	.st2{fill:#20A5DF;}
</style>
<g>
	<g>
		<polygon class="st2" points="52.3,33.1 38.8,24.9 60.8,19.5 		"/>
		<path class="st2" d="M39.2,42.2c-3.3,2.5-7.4,4-11.9,4c-11,0-19.9-8.9-19.9-19.9c0-11,8.9-19.9,19.9-19.9c11,0,19.9,8.9,19.9,19.9
			h6.3c0-14.4-11.7-26.1-26.1-26.1C12.9,0.2,1.2,11.9,1.2,26.3c0,14.4,11.7,26.1,26.1,26.1c8.4,0,16-4,20.7-10.3H39.2z"/>
	</g>
	<circle class="st0" cx="27.7" cy="26.2" r="3.6"/>
	<g>
		<rect x="26.8" y="9.1" class="st0" width="1.7" height="2.4"/>
	</g>
	<g>
		
			<rect x="15.5" y="13.7" transform="matrix(0.7071 -0.7071 0.7071 0.7071 -5.7254 15.9486)" class="st0" width="1.7" height="2.4"/>
	</g>
	<g>
		
			<rect x="10.8" y="24.9" transform="matrix(6.123234e-017 -1 1 6.123234e-017 -14.432 37.7662)" class="st0" width="1.7" height="2.4"/>
	</g>
	<g>
		
			<rect x="15.4" y="36.2" transform="matrix(-0.7071 -0.7071 0.7071 -0.7071 1.3305 75.2856)" class="st0" width="1.7" height="2.4"/>
	</g>
	<g>
		
			<rect x="26.6" y="40.9" transform="matrix(-1 -1.224647e-016 1.224647e-016 -1 54.9421 84.1782)" class="st0" width="1.7" height="2.4"/>
	</g>
	<g>
		
			<rect x="37.9" y="36.3" transform="matrix(-0.7071 0.7071 -0.7071 -0.7071 92.6476 36.6217)" class="st0" width="1.7" height="2.4"/>
	</g>
	<g>
		<rect x="38" y="13.8" transform="matrix(0.7071 0.7071 -0.7071 0.7071 22.0036 -23.0874)" class="st0" width="1.7" height="2.4"/>
	</g>
	<g>
		<polygon class="st0" points="30.6,24.7 27.2,23.3 32.1,13 34.3,13.9 		"/>
	</g>
	<g>
		<polygon class="st0" points="26.8,28.9 30.2,27.5 32.8,35.6 30.5,36.5 		"/>
	</g>
</g>
</svg>
