<?xml version="1.0" encoding="utf-8"?>
<!-- Generator: Adobe Illustrator 19.2.0, SVG Export Plug-In . SVG Version: 6.00 Build 0)  -->
<svg version="1.1" id="Layer_1" xmlns="http://www.w3.org/2000/svg" xmlns:xlink="http://www.w3.org/1999/xlink" x="0px" y="0px"
	 viewBox="0 0 22.7 23.4" style="enable-background:new 0 0 22.7 23.4;" xml:space="preserve">
<style type="text/css">
	.st0{fill:#043958;}
</style>
<path class="st0" d="M12.8,13l9.7,2.9v-1.4l-0.2,0.3l-6.5-3.9c0,0,0.4-1,0.3-1.7c0,0-0.6-0.3-1.3,0c0,0-0.1,0.7,0,1.2l-2.1-1.3
	l-0.1-6.3c0,0-0.1-0.8-0.3-1.1c-0.2-0.4-0.7-1-0.9-1c-0.2,0-0.7,0.6-0.9,1s-0.3,1.1-0.3,1.1L10,8.9l-2.1,1.3c0.1-0.5,0-1.2,0-1.2
	C7.2,8.7,6.6,9,6.6,9c0,0.7,0.3,1.7,0.3,1.7l-6.5,3.9l-0.2-0.3v1.4L9.9,13c0,0,0,1.6,0.1,3.2c0,1.6,0.4,3.5,0.4,3.5l-2.9,2l-0.2-0.3
	v1.4l3.5-1c0.2,0.6,0.5,1,0.5,1s0.3-0.4,0.5-1l3.5,1v-1.4l-0.2,0.3l-2.9-2c0,0,0.4-1.9,0.4-3.5C12.7,14.6,12.8,13,12.8,13z"/>
</svg>
