<?xml version="1.0" encoding="utf-8"?>
<!-- Generator: Adobe Illustrator 19.2.0, SVG Export Plug-In . SVG Version: 6.00 Build 0)  -->
<svg version="1.1" id="_1" xmlns="http://www.w3.org/2000/svg" xmlns:xlink="http://www.w3.org/1999/xlink" x="0px" y="0px"
	 viewBox="0 0 52.7 52.7" style="enable-background:new 0 0 52.7 52.7;" xml:space="preserve">
<style type="text/css">
	.st0{fill:#103756;}
	.st1{fill:#233642;}
	.st2{fill:#20A5DF;}
</style>
<g>
	<g>
		<path class="st0" d="M26.3,52.7C11.8,52.7,0,40.8,0,26.3C0,11.8,11.8,0,26.3,0s26.3,11.8,26.3,26.3C52.7,40.8,40.8,52.7,26.3,52.7
			z M26.3,3.1C13.5,3.1,3.1,13.5,3.1,26.3c0,12.8,10.4,23.2,23.2,23.2s23.2-10.4,23.2-23.2C49.5,13.5,39.1,3.1,26.3,3.1z"/>
	</g>
	<g>
		<circle class="st1" cx="26.3" cy="26.3" r="2.5"/>
	</g>
	<g>
		<path class="st2" d="M26,10.1c-0.7,0-1.3-0.6-1.3-1.3V6.1c0-0.7,0.6-1.3,1.3-1.3h1c0.7,0,1.3,0.6,1.3,1.3v2.7
			c0,0.7-0.6,1.3-1.3,1.3H26z"/>
	</g>
	<g>
		<path class="st2" d="M35.7,12.6c-0.2,0-0.4-0.1-0.6-0.2L34.2,12c-0.6-0.3-0.8-1.1-0.5-1.7l1.4-2.4c0.2-0.3,0.4-0.5,0.8-0.6
			c0.1,0,0.2,0,0.3,0c0.2,0,0.4,0.1,0.6,0.2l0.9,0.5c0.6,0.3,0.8,1.1,0.5,1.7L36.8,12c-0.2,0.3-0.4,0.5-0.8,0.6
			C35.9,12.6,35.8,12.6,35.7,12.6z"/>
	</g>
	<g>
		<path class="st2" d="M41.9,19.3c-0.1,0-0.2,0-0.3,0c-0.3-0.1-0.6-0.3-0.8-0.6l-0.5-0.9c-0.3-0.6-0.1-1.4,0.5-1.7l2.4-1.4
			c0.2-0.1,0.4-0.2,0.6-0.2c0.1,0,0.2,0,0.3,0c0.3,0.1,0.6,0.3,0.8,0.6l0.5,0.9c0.3,0.6,0.1,1.4-0.5,1.7l-2.4,1.4
			C42.3,19.3,42.1,19.3,41.9,19.3z"/>
	</g>
	<g>
		<path class="st2" d="M23.8,29.6c-0.1,0-0.2,0-0.3,0c-0.3-0.1-0.6-0.3-0.8-0.6l-0.5-0.9c-0.3-0.6-0.1-1.4,0.5-1.7l11.6-6.7
			c0.2-0.1,0.4-0.2,0.6-0.2c0.4,0,0.9,0.2,1.1,0.6l0.5,0.9c0.2,0.3,0.2,0.6,0.1,1c-0.1,0.3-0.3,0.6-0.6,0.8l-11.6,6.7
			C24.3,29.5,24.1,29.6,23.8,29.6z"/>
	</g>
	<g>
		<path class="st2" d="M43.8,28.1c-0.7,0-1.3-0.6-1.3-1.3v-1c0-0.7,0.6-1.3,1.3-1.3h2.7c0.7,0,1.3,0.6,1.3,1.3v1
			c0,0.7-0.6,1.3-1.3,1.3H43.8z"/>
	</g>
	<g>
		<path class="st2" d="M43.9,38.1c-0.2,0-0.4-0.1-0.6-0.2l-2.4-1.4c-0.3-0.2-0.5-0.4-0.6-0.8c-0.1-0.3,0-0.7,0.1-1l0.5-0.9
			c0.2-0.4,0.7-0.6,1.1-0.6c0.2,0,0.4,0.1,0.6,0.2l2.4,1.4c0.6,0.3,0.8,1.1,0.5,1.7L45,37.5c-0.2,0.3-0.4,0.5-0.8,0.6
			C44.1,38.1,44,38.1,43.9,38.1z"/>
	</g>
	<g>
		<path class="st2" d="M36,45.3c-0.1,0-0.2,0-0.3,0c-0.3-0.1-0.6-0.3-0.8-0.6l-1.4-2.4c-0.3-0.6-0.1-1.4,0.5-1.7l0.9-0.5
			c0.2-0.1,0.4-0.2,0.6-0.2c0.1,0,0.2,0,0.3,0c0.3,0.1,0.6,0.3,0.8,0.6l1.4,2.4c0.3,0.6,0.1,1.4-0.5,1.7l-0.9,0.5
			C36.5,45.2,36.2,45.3,36,45.3z"/>
	</g>
	<g>
		<path class="st2" d="M25.9,47.9c-0.7,0-1.3-0.6-1.3-1.3v-2.7c0-0.7,0.6-1.3,1.3-1.3h1c0.7,0,1.3,0.6,1.3,1.3v2.7
			c0,0.7-0.6,1.3-1.3,1.3H25.9z"/>
	</g>
	<g>
		<path class="st2" d="M16.6,45.6c-0.2,0-0.4-0.1-0.6-0.2l-0.9-0.5c-0.6-0.3-0.8-1.1-0.5-1.7l1.4-2.4c0.2-0.3,0.4-0.5,0.8-0.6
			c0.1,0,0.2,0,0.3,0c0.2,0,0.4,0.1,0.6,0.2l0.9,0.5c0.6,0.3,0.8,1.1,0.5,1.7L17.7,45c-0.2,0.3-0.4,0.5-0.8,0.6
			C16.8,45.6,16.7,45.6,16.6,45.6z"/>
	</g>
	<g>
		<path class="st2" d="M9.1,38c-0.4,0-0.9-0.2-1.1-0.6l-0.5-0.9c-0.2-0.3-0.2-0.6-0.1-1C7.5,35.2,7.7,35,8,34.8l2.4-1.4
			c0.2-0.1,0.4-0.2,0.6-0.2c0.4,0,0.9,0.2,1.1,0.6l0.5,0.9c0.2,0.3,0.2,0.6,0.1,1c-0.1,0.3-0.3,0.6-0.6,0.8l-2.4,1.4
			C9.5,38,9.3,38,9.1,38z"/>
	</g>
	<g>
		<path class="st2" d="M6.1,28.2c-0.7,0-1.3-0.6-1.3-1.3v-1c0-0.7,0.6-1.3,1.3-1.3h2.7c0.7,0,1.3,0.6,1.3,1.3v1
			c0,0.7-0.6,1.3-1.3,1.3H6.1z"/>
	</g>
	<g>
		<path class="st2" d="M10.8,19.1c-0.2,0-0.4-0.1-0.6-0.2l-2.4-1.4c-0.3-0.2-0.5-0.4-0.6-0.8c-0.1-0.3,0-0.7,0.1-1L7.8,15
			c0.2-0.4,0.7-0.6,1.1-0.6c0.2,0,0.4,0.1,0.6,0.2l2.4,1.4c0.3,0.2,0.5,0.4,0.6,0.8c0.1,0.3,0,0.7-0.1,1l-0.5,0.9
			C11.6,18.9,11.2,19.1,10.8,19.1z"/>
	</g>
	<g>
		<path class="st2" d="M17,12.5c-0.1,0-0.2,0-0.3,0c-0.3-0.1-0.6-0.3-0.8-0.6l-1.4-2.4c-0.2-0.3-0.2-0.6-0.1-1
			C14.5,8.2,14.7,8,15,7.8l0.9-0.5c0.2-0.1,0.4-0.2,0.6-0.2c0.4,0,0.9,0.2,1.1,0.6l1.4,2.4c0.3,0.6,0.1,1.4-0.5,1.7l-0.9,0.5
			C17.5,12.5,17.2,12.5,17,12.5z"/>
	</g>
	<g>
		<path class="st2" d="M28,30.8c-0.1,0-0.2,0-0.3,0c-0.3-0.1-0.6-0.3-0.8-0.6l-8-13.8c-0.3-0.6-0.1-1.4,0.5-1.7l0.9-0.5
			c0.2-0.1,0.4-0.2,0.6-0.2c0.1,0,0.2,0,0.3,0c0.3,0.1,0.6,0.3,0.8,0.6l8,13.8c0.3,0.6,0.1,1.4-0.5,1.7l-0.9,0.5
			C28.4,30.8,28.2,30.8,28,30.8z"/>
	</g>
</g>
</svg>
