<?xml version="1.0" encoding="utf-8"?>
<!-- Generator: Adobe Illustrator 19.2.0, SVG Export Plug-In . SVG Version: 6.00 Build 0)  -->
<svg version="1.1" id="_1" xmlns="http://www.w3.org/2000/svg" xmlns:xlink="http://www.w3.org/1999/xlink" x="0px" y="0px"
	 viewBox="0 0 52.7 52.7" style="enable-background:new 0 0 52.7 52.7;" xml:space="preserve">
<style type="text/css">
	.st0{fill:#103756;}
	.st1{fill:#233642;}
	.st2{fill:#20A5DF;}
</style>
<g>
	<g>
		<path class="st0" d="M11.6,33l-4.9,3.3L0.2,52.6L12,46.7l1.8-10.8C13.1,35,12.3,34,11.6,33z"/>
		<path class="st0" d="M45.9,36.3L41,33c-0.7,1-1.4,1.9-2.2,2.9l1.8,10.8l11.9,5.9L45.9,36.3z"/>
		<path class="st0" d="M29.9,45.4c-0.9,1-2.2,1.6-3.6,1.6c-1.4,0-2.7-0.6-3.6-1.6c-0.9-1-3.4-3.4-6.1-6.7l-1.3,8.4l11,5.5l11-5.5
			l-1.3-8.4C33.1,42.3,30.5,44.8,29.9,45.4z"/>
	</g>
	<path class="st2" d="M26.3,0C17.2,0,9.9,7.4,9.9,16.5c0,2.5,0.6,4.9,1.6,7.1c2.4,6,14.9,19.4,14.9,19.4s11.5-12.4,14.8-19.4
		c1-2.1,1.6-4.5,1.6-7.1C42.8,7.4,35.4,0,26.3,0z M26.3,24c-4.2,0-7.5-3.4-7.5-7.5c0-4.1,3.4-7.5,7.5-7.5c4.2,0,7.5,3.4,7.5,7.5
		C33.9,20.6,30.5,24,26.3,24z"/>
</g>
</svg>
