<?xml version="1.0" encoding="utf-8"?>
<!-- Generator: Adobe Illustrator 19.2.0, SVG Export Plug-In . SVG Version: 6.00 Build 0)  -->
<svg version="1.1" id="_1" xmlns="http://www.w3.org/2000/svg" xmlns:xlink="http://www.w3.org/1999/xlink" x="0px" y="0px"
	 viewBox="0 0 98.7 52.7" style="enable-background:new 0 0 98.7 52.7;" xml:space="preserve">
<style type="text/css">
	.st0{fill:#103756;}
	.st1{fill:#233642;}
	.st2{fill:#20A5DF;}
</style>
<g>
	<path class="st0" d="M98.3,10.1c-0.7-1-5.6-1.5-5.6-1.5c-4.7-0.7-9.9,0.6-13.8,2c0,0.2,0,0.3,0,0.5c0,7.9-6.4,14.3-14.3,14.3
		c-3.3,0-6.4-1.1-8.8-3.1l-5.6,3c0,0-9.5,5.4-13.6,7.4c-4.1,2-10.1,0.3-10.1,0.3s-15.5-5.6-18.5-6.9c-3-1.3-7.9,2.2-7.9,2.2l16,16.3
		l-7.6,5.5l1.3,2.5c0,0,20.3-5.6,24-6.7c3.7-1.1,13.3-3.9,17.1-5.8c3.8-1.9,9.2-3.6,9.2-3.6c4.6,2.5,14.7-5.3,14.7-5.3l-1.3-2.9
		c0,0,18.3-10.7,21.1-12.8C97.7,13.3,99,11.1,98.3,10.1z"/>
	<path class="st2" d="M64.7,0.1c-6,0-10.9,4.9-10.9,10.9c0,6,4.9,10.9,10.9,10.9c6,0,10.9-4.9,10.9-10.9C75.6,5,70.7,0.1,64.7,0.1z
		 M70.6,8.3l-5.3,6.7c-0.1,0.2-0.4,0.4-0.5,0.6c0,0-0.3,0.3-0.7,0.3c0,0,0,0,0,0c-0.1,0-0.3,0-0.5-0.1c-0.2,0-0.7-0.5-0.9-0.6
		l-3.8-3.8c-0.2-0.2-0.2-0.4,0-0.6l1.5-1.5c0.2-0.2,0.4-0.2,0.6,0l2.7,2.7c0.2,0.2,0.4,0.1,0.5,0l4.3-5.4c0.1-0.2,0.4-0.2,0.5-0.1
		l1.7,1.3C70.7,7.8,70.8,8.1,70.6,8.3z"/>
</g>
</svg>
