<?xml version="1.0" encoding="utf-8"?>
<!-- Generator: Adobe Illustrator 19.1.0, SVG Export Plug-In . SVG Version: 6.00 Build 0)  -->
<svg version="1.1" id="Layer_1" xmlns="http://www.w3.org/2000/svg" xmlns:xlink="http://www.w3.org/1999/xlink" x="0px" y="0px"
	 viewBox="-200 498.6 137.3 137.3" style="enable-background:new -200 498.6 137.3 137.3;" xml:space="preserve">
<style type="text/css">
	.st0{fill:#D4D4D4;}
</style>
<g>
	<path class="st0" d="M-174.4,613.6c10.4,1.3,26.7,2.2,42.7,2.2h1.2l0,0l0,0h0.1c15.9,0,32.2-0.9,42.6-2.2c2.1-0.3,3.2-1.5,3.2-3.6
		l-0.1-1.8l0,0c-1.3-16.6-12.8-29.3-30.7-34c-0.9-0.2-1.8,0.2-2.2,1c-0.2,0.3-4.3,8.1-13.6,8.1c-9.1,0-14-8-14-8
		c-0.4-0.7-1.3-1.1-2.1-0.9c-17.6,4.8-28.9,17.5-30.3,33.9l-0.1,1.9C-177.6,612-176.4,613.3-174.4,613.6z M-147.5,578.4
		c2,2.6,7.4,8.7,16.5,8.7c9.2,0,14.3-6.1,16.2-8.8c15.5,4.5,25.4,15.8,26.5,30.2l0.1,1.3c-10.4,1.3-26.8,2.2-42.7,2.2
		c-16,0-32.3-0.9-42.7-2.2l0.1-1.3C-172.6,594.2-162.8,583-147.5,578.4z"/>
	<path class="st0" d="M-151.5,554.8c2.6,12.2,10.8,20.3,20.5,20.3c9.6,0,17.8-8.1,20.4-20.2c1.8-1.6,2.2-4.3,2.5-6.7
		c0.5-4.4-0.2-7.5-2.2-8.8c-2.2-12.1-10.3-19.9-20.7-19.9s-18.5,7.8-20.7,19.9c-2,1.4-2.8,4.6-2.3,8.8
		C-153.7,550.7-153.2,553.3-151.5,554.8z M-124.2,529.8c-0.4-0.5-1.1-0.8-1.8-0.8c-0.7,0.1-1.3,0.5-1.6,1.1l-0.4,0.7
		c-3.9,6.7-11.8,10.2-19.5,8.2c2.1-9.5,8.3-15.4,16.5-15.4c7,0,12.7,4.5,15.5,12C-118.9,534.6-121.9,532.6-124.2,529.8z
		 M-125.4,534.5c3.1,2.9,6.9,4.9,11.1,5.6c0.1,0.3,0.1,0.6,0.2,0.9c0.1,0.8,0.7,1.5,1.5,1.7c0.3,0.1,0.9,1.6,0.5,5
		c-0.4,3.1-0.9,4-1.3,4.2c-0.5,0.3-0.9,0.8-1,1.4c-2,10.6-8.7,17.7-16.5,17.7c-7.9,0-14.5-7.1-16.5-17.7c-0.1-0.6-0.5-1.1-1-1.4
		c-0.4-0.2-1-1.1-1.3-4.2c-0.4-2.9,0.1-4.5,0.4-4.9c2.1,0.6,4.2,1,6.3,1C-136.2,543.7-129.5,540.2-125.4,534.5z"/>
	<path class="st0" d="M-200,498.6v137.3h137.3V498.6H-200z M-65.7,632.9H-197V501.6h131.3V632.9z"/>
</g>
</svg>
