<?xml version="1.0" encoding="utf-8"?>
<!-- Generator: Adobe Illustrator 19.1.0, SVG Export Plug-In . SVG Version: 6.00 Build 0)  -->
<svg version="1.1" id="Layer_2" xmlns="http://www.w3.org/2000/svg" xmlns:xlink="http://www.w3.org/1999/xlink" x="0px" y="0px"
	 viewBox="0 0 150 83" style="enable-background:new 0 0 150 83;" xml:space="preserve">
<style type="text/css">
	.st0{fill:#102B3F;stroke:#102B3F;stroke-width:2.3142;stroke-miterlimit:10;}
	.st1{fill:#13B2E8;}
	.st2{fill:url(#SVGID_1_);}
	.st3{fill:url(#SVGID_2_);}
	.st4{fill:url(#SVGID_3_);}
	.st5{fill:url(#SVGID_4_);}
	.st6{fill:url(#SVGID_5_);}
	.st7{fill:#102B3F;stroke:#102B3F;stroke-width:1.5428;stroke-miterlimit:10;}
	.st8{fill:#F9B03C;}
	.st9{fill:url(#SVGID_6_);}
	.st10{fill:url(#SVGID_7_);}
	.st11{fill:url(#SVGID_8_);}
	.st12{fill:url(#SVGID_9_);}
	.st13{fill:url(#SVGID_10_);}
	.st14{fill:url(#SVGID_11_);}
	.st15{fill:url(#SVGID_12_);}
	.st16{fill:url(#SVGID_13_);}
	.st17{fill:#102B3F;stroke:#102B3F;stroke-width:2.3735;stroke-miterlimit:10;}
	.st18{fill:url(#SVGID_14_);}
	.st19{fill:url(#SVGID_15_);}
	.st20{fill:url(#SVGID_16_);}
	.st21{fill:url(#SVGID_17_);}
</style>
<path class="st0" d="M80.2,41.4c1.9,2.4,2.9,5.4,2.8,8.4c-0.2,3.6-1.8,5.7-2.9,7.3c-2.5,3.7,0.3,3.7,3.3,2.9s5.2-2.9,6.5-8.4
	c0.7-2.8,1.9-6.9,5.2-8c5.6-1.9,6.7,7.3,4.6,10.5c-1.1,1.7-2.9,3.2-7.2,2.4c-2.1,0.2-1.4,4.7,6.5,3.7c8.3-1,13-13.2,5-19.3
	c-5.5-4.2-11.1-3.1-15.6,2c-3.7-3.6-3.9-4.6-6.9-4.4C77.6,38.9,79,39.8,80.2,41.4z"/>
<path class="st0" d="M55.1,40c-0.4,4-0.1,8.1-0.2,12.1c4.3,12.2,21.1,14.3,26.2-0.6c2.6-10-8.7-16.8-14.1-11.9
	c-1.7,1.5-1.9,2.9-1.8,3.4c0.5,1.7,3.3,0.2,5.5,0.7c4.1,1.2,3.2,7.9,0.8,10.1c-2.6,2.4-6.5,2.3-8.2-2.4c-0.1-2.3-0.1-4.6-0.2-6.9
	c-0.1-3.3-3-5-5.7-5.8C55.4,38.1,55.3,38.7,55.1,40z"/>
<path class="st0" d="M42.9,42.9v5.7c0,1.8-1.6,4.4-6.7,5.7c-2,0.5-1.8,0.2-1.8-2v-9.7C34.8,36.9,42.2,36.7,42.9,42.9z"/>
<path class="st0" d="M52.7,42.9v5.7c0,1.8-1.6,4.4-6.7,5.7c-2,0.5-1.8,0.2-1.8-2v-9.7C44.6,36.9,52,36.7,52.7,42.9z"/>
<path class="st0" d="M57.4,2.1C38.3-4.3,23.5,14.8,22.3,33.8C16.4,33,4.8,26.2,2.2,32.9c-1.1,2.9,0.6,3.8,2.4,6
	c6,7.1,11.7,13.9,17.8,21.1c2.4,2.9,4.1,2.3,5.5,0.1c1.7-2.6,1.4-2.7-0.3-5.2c-0.2-4.6-0.4-9.2-0.6-13.7c5.8,1.7,12.3-4.8,3.8-6
	c-2.3-0.3-2.7-0.8-1.5-4.2c2.8-7.7,4.9-15.4,15-21.4c3.8-2.2,6.5-2.8,9.3-2C63.3,10.1,64.7,4.6,57.4,2.1L57.4,2.1L57.4,2.1z
	 M14,37.7l5.1,0.8c2.5,0.4,2.5,0.7,2.4,2.6c0,0.3,0,0.7,0,1.2v2.3c0,0.5,0,0.9,0,1.3c0,0.7,0.1,1.2-0.2,1.5c-0.5,0.5-1,0-2.3-1.3
	l-5.8-6l0,0c-0.3-0.3-0.6-0.6-0.8-0.8C10.8,37.6,12.3,37.4,14,37.7L14,37.7z"/>
<path class="st1" d="M79.5,41.4c1.9,2.4,2.9,5.4,2.8,8.4c-0.2,3.6-1.8,5.7-2.9,7.3c-2.5,3.7,0.3,3.7,3.3,2.9s5.2-2.9,6.5-8.4
	c0.7-2.9,1.9-6.9,5.2-8c5.6-1.9,6.7,7.3,4.6,10.5c-1.1,1.7-2.9,3.2-7.2,2.4c-2.1,0.2-1.4,4.7,6.5,3.7c8.3-1,13-13.2,5-19.3
	c-5.5-4.2-11.1-3.1-15.6,2c-3.7-3.6-3.9-4.6-6.9-4.4C76.9,38.9,78.3,39.8,79.5,41.4z"/>
<path class="st1" d="M54.4,40c-0.4,4-0.1,8.1-0.2,12.1c4.3,12.2,21.1,14.3,26.2-0.6c2.6-10-8.7-16.8-14.1-11.9
	c-1.7,1.5-1.9,2.9-1.8,3.4c0.5,1.7,3.3,0.2,5.5,0.7c4.1,1.2,3.2,7.9,0.8,10.1c-2.6,2.4-6.5,2.3-8.2-2.4c-0.1-2.3-0.1-4.6-0.2-6.9
	c-0.1-3.3-3-5-5.7-5.8C54.6,38.1,54.5,38.7,54.4,40z"/>
<path class="st1" d="M42.1,42.9v5.7c0,1.8-1.6,4.4-6.7,5.7c-2,0.5-1.8,0.2-1.8-2v-9.7C34,36.9,41.4,36.7,42.1,42.9z"/>
<path class="st1" d="M51.9,42.9v5.7c0,1.8-1.6,4.4-6.7,5.7c-2,0.5-1.8,0.2-1.8-2v-9.7C43.9,36.9,51.2,36.7,51.9,42.9z"/>
<path class="st1" d="M56.6,2.1C37.5-4.3,22.7,14.8,21.5,33.8C15.6,33,4,26.2,1.5,32.9c-1.1,2.9,0.6,3.8,2.4,6
	C9.9,46,15.6,52.8,21.6,60c2.4,2.9,4.1,2.3,5.5,0.1c1.7-2.6,1.4-2.7-0.3-5.2c-0.2-4.6-0.4-9.2-0.6-13.7c5.8,1.7,12.3-4.8,3.8-6
	c-2.3-0.3-2.7-0.8-1.5-4.2c2.8-7.6,4.9-15.4,15-21.3c3.8-2.2,6.5-2.8,9.3-2C62.5,10.1,64,4.6,56.6,2.1L56.6,2.1L56.6,2.1z
	 M13.3,37.7l5.1,0.8c2.5,0.4,2.5,0.7,2.4,2.6c0,0.3,0,0.7,0,1.2v2.3c0,0.5,0,0.9,0,1.3c0,0.7,0.1,1.2-0.2,1.5c-0.5,0.5-1,0-2.3-1.3
	l-5.8-6l0,0c-0.3-0.3-0.6-0.6-0.8-0.8C10,37.6,11.5,37.4,13.3,37.7L13.3,37.7z"/>
<linearGradient id="SVGID_1_" gradientUnits="userSpaceOnUse" x1="92.8623" y1="-265.3802" x2="92.8623" y2="-243.2908" gradientTransform="matrix(1 0 0 -1 0 -205)">
	<stop  offset="0" style="stop-color:#2581C4"/>
	<stop  offset="1" style="stop-color:#2581C4;stop-opacity:0"/>
</linearGradient>
<path class="st2" d="M79.5,41.4c1.9,2.4,2.9,5.4,2.8,8.4c-0.2,3.6-1.8,5.7-2.9,7.3c-2.5,3.7,0.3,3.7,3.3,2.9s5.2-2.9,6.5-8.4
	c0.7-2.9,1.9-6.9,5.2-8c5.6-1.9,6.7,7.3,4.6,10.5c-1.1,1.7-2.9,3.2-7.2,2.4c-2.1,0.2-1.4,4.7,6.5,3.7c8.3-1,13-13.2,5-19.3
	c-5.5-4.2-11.1-3.1-15.6,2c-3.7-3.6-3.9-4.6-6.9-4.4C76.9,38.9,78.3,39.8,79.5,41.4z"/>
<linearGradient id="SVGID_2_" gradientUnits="userSpaceOnUse" x1="67.4473" y1="-266.9756" x2="67.4473" y2="-242.9971" gradientTransform="matrix(1 0 0 -1 0 -205)">
	<stop  offset="0" style="stop-color:#2581C4"/>
	<stop  offset="1" style="stop-color:#2581C4;stop-opacity:0"/>
</linearGradient>
<path class="st3" d="M54.4,40c-0.4,4-0.1,8.1-0.2,12.1c4.3,12.2,21.1,14.3,26.2-0.6c2.6-10-8.7-16.8-14.1-11.9
	c-1.7,1.5-1.9,2.9-1.8,3.4c0.5,1.7,3.3,0.2,5.5,0.7c4.1,1.2,3.2,7.9,0.8,10.1c-2.6,2.4-6.5,2.3-8.2-2.4c-0.1-2.3-0.1-4.6-0.2-6.9
	c-0.1-3.3-3-5-5.7-5.8C54.6,38.1,54.5,38.7,54.4,40z"/>
<linearGradient id="SVGID_3_" gradientUnits="userSpaceOnUse" x1="37.8262" y1="-259.5407" x2="37.8262" y2="-243.264" gradientTransform="matrix(1 0 0 -1 0 -205)">
	<stop  offset="0" style="stop-color:#2581C4"/>
	<stop  offset="1" style="stop-color:#2581C4;stop-opacity:0"/>
</linearGradient>
<path class="st4" d="M42.1,42.9v5.7c0,1.8-1.6,4.4-6.7,5.7c-2,0.5-1.8,0.2-1.8-2v-9.7C34,36.9,41.4,36.7,42.1,42.9z"/>
<linearGradient id="SVGID_4_" gradientUnits="userSpaceOnUse" x1="47.6626" y1="-259.5407" x2="47.6626" y2="-243.264" gradientTransform="matrix(1 0 0 -1 0 -205)">
	<stop  offset="0" style="stop-color:#2581C4"/>
	<stop  offset="1" style="stop-color:#2581C4;stop-opacity:0"/>
</linearGradient>
<path class="st5" d="M51.9,42.9v5.7c0,1.8-1.6,4.4-6.7,5.7c-2,0.5-1.8,0.2-1.8-2v-9.7C43.9,36.9,51.2,36.7,51.9,42.9z"/>
<linearGradient id="SVGID_5_" gradientUnits="userSpaceOnUse" x1="31.1781" y1="0.846" x2="31.1781" y2="61.9947">
	<stop  offset="0" style="stop-color:#2581C4"/>
	<stop  offset="1" style="stop-color:#2581C4;stop-opacity:0"/>
</linearGradient>
<path class="st6" d="M56.6,2.1L56.6,2.1C37.5-4.3,22.7,14.8,21.5,33.8C15.6,33,4,26.2,1.5,32.9c-1.1,2.9,0.6,3.8,2.4,6
	C9.9,46,15.6,52.8,21.6,60c2.4,2.9,4.1,2.3,5.5,0.1c1.7-2.6,1.4-2.7-0.3-5.2c-0.2-4.6-0.4-9.2-0.6-13.7c5.8,1.7,12.3-4.8,3.8-6
	c-2.3-0.3-2.7-0.8-1.5-4.2c2.8-7.6,4.9-15.4,15-21.3c3.8-2.2,6.5-2.8,9.3-2C62.5,10.1,64,4.6,56.6,2.1z M20.6,47.3
	c-0.5,0.5-1,0-2.3-1.3l-5.8-6c-0.3-0.3-0.6-0.6-0.8-0.8c-1.7-1.6-0.2-1.8,1.6-1.5l0,0l5.1,0.8c2.5,0.4,2.5,0.7,2.4,2.6
	c0,0.3,0,0.7,0,1.2v2.3c0,0.5,0,0.9,0,1.3C20.9,46.5,20.9,47,20.6,47.3z"/>
<path class="st7" d="M114.2,72.3l-12.7,2.3c-1.5,0.3-3.1,0.9-3.2,2.3c-0.4,4.1,16.9-1.3,22.5-4c2.6-1.3,3.8,0.7,6,2.7
	c1.8,1.6,3.5,1.2,4.1-0.2c0.9-2.2-0.9-2.7-2.4-3.9c-2.7-2.3-5.9-4.7-7.9-3.5C118.1,69.4,117.2,71.8,114.2,72.3z"/>
<path class="st7" d="M86.3,64.1c-2.3-0.1-2.9,2.2-3.5,5.3c-0.2,1.7-1.9,2.8-2.8,4c-0.7,0.9-0.6,2.2,0.3,2.9c0.1,0.1,0.2,0.2,0.4,0.2
	c1.2,0.5,2.8-0.2,3.6-1.4c0.6-0.8,0.6-1.9,1.8-1.3c1.2,0.5,0.9,2.3,7.4,2.1c2.1-0.1,4.8,0.2,4.6-1.7c-0.2-1.4-1.7-1.4-5.1-1.1
	c-0.7,0.1-2.1,0.4-2.4-0.5c-0.2-0.5,0.5-1.1,1.5-1c3.4,0.3,8.4,0.8,9-0.9c0.6-1.6-0.9-2-2.6-2c-2.6-0.2-5.2-0.1-7.7,0.2
	c-1.6,0.2-2,0.3-1.9-1.3C88.9,65.6,88.8,64.2,86.3,64.1z"/>
<path class="st7" d="M76.5,68c1.6,0,2.9,1.3,2.9,2.9c0,1.6-1.3,2.9-2.9,2.9c-1.6,0-2.9-1.3-2.9-2.9C73.5,69.3,74.8,68,76.5,68
	L76.5,68L76.5,68z M66.2,73.9c-1,0-1.5-0.4-1.5-1c0-0.5,1.4-1.3,1.9-1.3C67.7,71.6,67.1,73.9,66.2,73.9L66.2,73.9L66.2,73.9z
	 M80.6,57.8c-2.5-1.4-8,0.3-10.2,1.4c-4.8,2.3-7.9,6.3-5.2,7.3c1.6,0.6,2.6,3.8-0.2,3.4c-2-0.3-4.2,0.3-4.8,2.3
	c-0.7,2.7,2.3,4.6,4.6,4.8c5.8,0.5,7.8-5.6,5.2-8.8c-1-1.2-1.9-1.1-1.9-2.3c0.1-2.3,4.8-5.3,8.4-5.5c0.8,0,2.6,0,3.8-0.4
	C81.5,59.7,81.8,58.4,80.6,57.8z"/>
<path class="st7" d="M32.3,79.4c-0.2-0.7,0.2-1.4,0.9-1.7c0.1,0,0.2-0.1,0.3-0.1c2-0.2,3,0.6,6.7,0.8c4.1,0.1,7.8-0.1,10.4-2
	c3.2-2.3,2.2-3.2,2-6.7c-0.1-1.3,0.2-2.6,2.1-2.7c3.5-0.3,4.6,5,3.2,7.6c-2.8,5-7.4,6.8-14.7,7.4C39.2,82.3,33.5,82.3,32.3,79.4z"/>
<path class="st7" d="M23,70.2c-1.5,1.3-5.8,1.4-3.9-1.2c2.1-2.7,5.3-3.6,9-3.3c3.9,0.3,8.3,1.6,7.3,6.9c1,0.1,1,0.8,0.9,1.4
	c-0.1,0.5-0.3,0.8-1.8,0.8c-0.3,1.4-1.1,1.7-2.2,1.6c-1-0.1-2-0.3-2-1.9c-1.1,0-2.6,0.1-3.7,0.1c-2,0-2.4-3.1-0.6-3
	c1.6,0.1,3.7,0.2,4.1-0.6c0.5-1.2-1.2-2.1-2.7-2.2C25.9,68.5,24.2,69.1,23,70.2z"/>
<path class="st8" d="M113.5,72.3l-12.7,2.3c-1.5,0.3-3.1,0.9-3.2,2.3c-0.4,4.1,16.9-1.3,22.5-4c2.6-1.3,3.8,0.7,6,2.7
	c1.8,1.6,3.5,1.2,4.1-0.2c0.9-2.2-0.9-2.7-2.4-3.9c-2.7-2.3-5.9-4.7-7.9-3.5C117.4,69.4,116.5,71.8,113.5,72.3z"/>
<path class="st8" d="M85.6,64.1c-2.3-0.1-2.9,2.2-3.5,5.3c-0.2,1.7-1.9,2.8-2.8,4c-0.7,0.9-0.6,2.2,0.3,2.9c0.1,0.1,0.2,0.2,0.4,0.2
	c1.2,0.5,2.8-0.2,3.6-1.4c0.6-0.8,0.6-1.9,1.8-1.3c1.2,0.5,0.9,2.3,7.4,2.1c2.1-0.1,4.8,0.2,4.6-1.7c-0.2-1.4-1.7-1.4-5.1-1.1
	c-0.7,0.1-2.1,0.4-2.4-0.5c-0.2-0.5,0.5-1.1,1.5-1c3.4,0.3,8.4,0.8,9-0.9c0.6-1.6-0.9-2-2.6-2c-2.6-0.2-5.2-0.1-7.7,0.2
	c-1.6,0.2-2,0.3-1.9-1.3C88.1,65.6,88,64.2,85.6,64.1z"/>
<path class="st8" d="M75.7,68c1.6,0,2.9,1.3,2.9,2.9c0,1.6-1.3,2.9-2.9,2.9c-1.6,0-2.9-1.3-2.9-2.9C72.8,69.3,74.1,68,75.7,68
	L75.7,68L75.7,68z M65.4,73.9c-1,0-1.5-0.4-1.5-1c0-0.5,1.4-1.3,1.9-1.3C66.9,71.6,66.4,73.9,65.4,73.9L65.4,73.9L65.4,73.9z
	 M79.8,57.7c-2.5-1.4-8,0.3-10.2,1.4c-4.8,2.3-7.9,6.3-5.2,7.3c1.6,0.6,2.6,3.8-0.2,3.4c-2-0.3-4.2,0.3-4.8,2.3
	c-0.7,2.7,2.3,4.6,4.6,4.8c5.8,0.5,7.8-5.6,5.2-8.8c-1-1.2-1.9-1.1-1.9-2.3c0.1-2.3,4.8-5.3,8.4-5.5c0.8,0,2.6,0,3.8-0.4
	C80.7,59.7,81,58.4,79.8,57.7L79.8,57.7z"/>
<path class="st8" d="M31.6,79.4c-0.2-0.7,0.2-1.4,0.9-1.7c0.1,0,0.2-0.1,0.3-0.1c2-0.2,3,0.6,6.7,0.8c4.1,0.1,7.8-0.1,10.4-2
	c3.2-2.3,2.2-3.2,2-6.7c-0.1-1.3,0.2-2.6,2.1-2.7c3.5-0.3,4.6,5,3.2,7.6c-2.8,5-7.4,6.8-14.7,7.4C38.4,82.3,32.7,82.3,31.6,79.4z"/>
<path class="st8" d="M22.2,70.2c-1.5,1.3-5.8,1.4-3.9-1.2c2.1-2.7,5.3-3.6,9-3.3c3.9,0.3,8.3,1.6,7.3,6.9c1,0.1,1,0.8,0.9,1.4
	c-0.1,0.5-0.3,0.8-1.8,0.8c-0.3,1.4-1.1,1.7-2.2,1.6c-1-0.1-2-0.3-2-1.9c-1.1,0-2.6,0.1-3.7,0.1c-2,0-2.4-3.1-0.6-3
	c1.6,0.1,3.7,0.2,4.1-0.6c0.5-1.2-1.2-2.1-2.7-2.2C25.1,68.5,23.5,69.1,22.2,70.2z"/>
<linearGradient id="SVGID_6_" gradientUnits="userSpaceOnUse" x1="113.9639" y1="-283.3301" x2="113.9639" y2="-272.6706" gradientTransform="matrix(1 0 0 -1 0 -205)">
	<stop  offset="0" style="stop-color:#F39200"/>
	<stop  offset="1" style="stop-color:#FCEA10;stop-opacity:0"/>
</linearGradient>
<path class="st9" d="M113.5,72.3l-12.7,2.3c-1.5,0.3-3.1,0.9-3.2,2.3c-0.4,4.1,16.9-1.3,22.5-4c2.6-1.3,3.8,0.7,6,2.7
	c1.8,1.6,3.5,1.2,4.1-0.2c0.9-2.2-0.9-2.7-2.4-3.9c-2.7-2.3-5.9-4.7-7.9-3.5C117.4,69.4,116.5,71.8,113.5,72.3z"/>
<linearGradient id="SVGID_7_" gradientUnits="userSpaceOnUse" x1="89.573" y1="-281.7058" x2="89.573" y2="-269.1066" gradientTransform="matrix(1 0 0 -1 0 -205)">
	<stop  offset="0" style="stop-color:#F39200"/>
	<stop  offset="1" style="stop-color:#FCEA10;stop-opacity:0"/>
</linearGradient>
<path class="st10" d="M85.6,64.1c-2.3-0.1-2.9,2.2-3.5,5.3c-0.2,1.7-1.9,2.8-2.8,4c-0.7,0.9-0.6,2.2,0.3,2.9
	c0.1,0.1,0.2,0.2,0.4,0.2c1.2,0.5,2.8-0.2,3.6-1.4c0.6-0.8,0.6-1.9,1.8-1.3c1.2,0.5,0.9,2.3,7.4,2.1c2.1-0.1,4.8,0.2,4.6-1.7
	c-0.2-1.4-1.7-1.4-5.1-1.1c-0.7,0.1-2.1,0.4-2.4-0.5c-0.2-0.5,0.5-1.1,1.5-1c3.4,0.3,8.4,0.8,9-0.9c0.6-1.6-0.9-2-2.6-2
	c-2.6-0.2-5.2-0.1-7.7,0.2c-1.6,0.2-2,0.3-1.9-1.3C88.1,65.6,88,64.2,85.6,64.1z"/>
<linearGradient id="SVGID_8_" gradientUnits="userSpaceOnUse" x1="69.9922" y1="-282.0342" x2="69.9922" y2="-262.2648" gradientTransform="matrix(1 0 0 -1 0 -205)">
	<stop  offset="0" style="stop-color:#F39200"/>
	<stop  offset="1" style="stop-color:#FCEA10;stop-opacity:0"/>
</linearGradient>
<path class="st11" d="M75.7,68c1.6,0,2.9,1.3,2.9,2.9c0,1.6-1.3,2.9-2.9,2.9c-1.6,0-2.9-1.3-2.9-2.9C72.8,69.3,74.1,68,75.7,68
	L75.7,68L75.7,68z M65.4,73.9c-1,0-1.5-0.4-1.5-1c0-0.5,1.4-1.3,1.9-1.3C66.9,71.6,66.4,73.9,65.4,73.9L65.4,73.9L65.4,73.9z
	 M79.8,57.7c-2.5-1.4-8,0.3-10.2,1.4c-4.8,2.3-7.9,6.3-5.2,7.3c1.6,0.6,2.6,3.8-0.2,3.4c-2-0.3-4.2,0.3-4.8,2.3
	c-0.7,2.7,2.3,4.6,4.6,4.8c5.8,0.5,7.8-5.6,5.2-8.8c-1-1.2-1.9-1.1-1.9-2.3c0.1-2.3,4.8-5.3,8.4-5.5c0.8,0,2.6,0,3.8-0.4
	C80.7,59.7,81,58.4,79.8,57.7L79.8,57.7z"/>
<linearGradient id="SVGID_9_" gradientUnits="userSpaceOnUse" x1="44.6218" y1="-287.1436" x2="44.6218" y2="-272.0652" gradientTransform="matrix(1 0 0 -1 0 -205)">
	<stop  offset="0" style="stop-color:#F39200"/>
	<stop  offset="1" style="stop-color:#FCEA10;stop-opacity:0"/>
</linearGradient>
<path class="st12" d="M31.6,79.4c-0.2-0.7,0.2-1.4,0.9-1.7c0.1,0,0.2-0.1,0.3-0.1c2-0.2,3,0.6,6.7,0.8c4.1,0.1,7.8-0.1,10.4-2
	c3.2-2.3,2.2-3.2,2-6.7c-0.1-1.3,0.2-2.6,2.1-2.7c3.5-0.3,4.6,5,3.2,7.6c-2.8,5-7.4,6.8-14.7,7.4C38.4,82.3,32.7,82.3,31.6,79.4z"/>
<linearGradient id="SVGID_10_" gradientUnits="userSpaceOnUse" x1="26.6963" y1="-281.3039" x2="26.6963" y2="-270.6277" gradientTransform="matrix(1 0 0 -1 0 -205)">
	<stop  offset="0" style="stop-color:#F39200"/>
	<stop  offset="1" style="stop-color:#FCEA10;stop-opacity:0"/>
</linearGradient>
<path class="st13" d="M22.2,70.2c-1.5,1.3-5.8,1.4-3.9-1.2c2.1-2.7,5.3-3.6,9-3.3c3.9,0.3,8.3,1.6,7.3,6.9c1,0.1,1,0.8,0.9,1.4
	c-0.1,0.5-0.3,0.8-1.8,0.8c-0.3,1.4-1.1,1.7-2.2,1.6c-1-0.1-2-0.3-2-1.9c-1.1,0-2.6,0.1-3.7,0.1c-2,0-2.4-3.1-0.6-3
	c1.6,0.1,3.7,0.2,4.1-0.6c0.5-1.2-1.2-2.1-2.7-2.2C25.1,68.5,23.5,69.1,22.2,70.2z"/>
<path class="st0" d="M40,14.2c-0.4,0-0.9,0-1.6-0.2c-2.2-0.4-3.5-1.1-4.1-2.4c-0.8-1.8,2-2.8,3.3-2.8L48.8,9c3.8,0,3.2,3.7,0.9,4.8
	l-3.1,1.5v16.2c0,1.9,0.5,2.6-1.5,2c-3.7-1.1-6.1-3.7-6.1-8.1v-7.7C39,16.4,41.1,14.4,40,14.2z"/>
<path class="st1" d="M39.2,14.2c-0.4,0-0.9,0-1.6-0.2c-2.2-0.4-3.5-1.1-4.1-2.4c-0.8-1.8,2-2.8,3.3-2.8L48,9c3.8,0,3.2,3.7,0.9,4.8
	l-3.1,1.5v16.2c0,1.9,0.5,2.6-1.5,2c-3.7-1-6.2-3.7-6.2-8.1v-7.7C38.2,16.4,40.3,14.4,39.2,14.2z"/>
<linearGradient id="SVGID_11_" gradientUnits="userSpaceOnUse" x1="42.0737" y1="-238.6949" x2="42.0737" y2="-213.9148" gradientTransform="matrix(1 0 0 -1 0 -205)">
	<stop  offset="0" style="stop-color:#2581C4"/>
	<stop  offset="1" style="stop-color:#2581C4;stop-opacity:0"/>
</linearGradient>
<path class="st14" d="M48,9L36.9,8.9c-1.4,0-4.1,1-3.3,2.8c0.5,1.3,1.8,1.9,4.1,2.4c0.7,0.1,1.2,0.1,1.6,0.2c1.1,0.1-1,2.2-1,3.4
	v7.7c0,4.5,2.5,7.1,6.1,8.1c2,0.6,1.5-0.1,1.5-2V15.3l3.1-1.5C51.2,12.7,51.8,9,48,9z"/>
<path class="st0" d="M54.6,16.3c-1.6-0.9-2.7-2.7-1.3-4.3c5.9-6.9,15.8-4.6,19.6,3c1.9,3.8,2.1,9.4,0.2,13.2
	c-2.9,5.7-11.1,8.3-17.6,3.6c-1.2-0.9-3.5-3.5-1.4-5.2c1.2-1,2.5,0.3,4,1.2c1.6,1.1,3.8,1.3,5.6,0.5c4.7-2.2,5.9-10.6-0.5-13.9
	c-1.9-1-4.3-0.6-5.7,1.1C56.2,16.6,56.5,17.3,54.6,16.3z"/>
<path class="st1" d="M53.8,16.3c-1.6-0.9-2.7-2.7-1.3-4.3c5.9-6.9,15.8-4.6,19.6,3c1.9,3.8,2.1,9.4,0.2,13.2
	c-2.9,5.7-11.1,8.3-17.6,3.6c-1.2-0.9-3.5-3.5-1.4-5.2c1.2-1,2.5,0.3,4,1.2c1.6,1.1,3.8,1.3,5.6,0.5c4.7-2.2,5.9-10.6-0.5-13.9
	c-1.9-1-4.3-0.6-5.7,1.1C55.5,16.6,55.7,17.3,53.8,16.3z"/>
<linearGradient id="SVGID_12_" gradientUnits="userSpaceOnUse" x1="62.7171" y1="-239.1575" x2="62.7171" y2="-212.804" gradientTransform="matrix(1 0 0 -1 0 -205)">
	<stop  offset="0" style="stop-color:#2581C4"/>
	<stop  offset="1" style="stop-color:#2581C4;stop-opacity:0"/>
</linearGradient>
<path class="st15" d="M52.5,11.9c-1.4,1.7-0.3,3.4,1.3,4.3c1.9,1,1.7,0.4,2.8-0.9c1.4-1.7,3.8-2.1,5.7-1.1
	c6.5,3.2,5.3,11.6,0.5,13.9c-1.8,0.9-3.9,0.7-5.6-0.5c-1.5-0.9-2.8-2.2-4-1.2c-2.1,1.8,0.1,4.3,1.4,5.2c6.5,4.7,14.7,2.1,17.6-3.6
	c1.9-3.8,1.7-9.3-0.2-13.2C68.3,7.3,58.4,5,52.5,11.9z"/>
<path class="st0" d="M75.2,15.4c-1.9,0.2-2.6-2.5-0.5-4.3c6.8-6,17.1-3.3,19.8,5.4c0,5.6,0,9.3,0.1,14.4c0,2.5,0.4,4.3-1.6,3.5
	c-2.4-1-5.5-3.2-5.4-6.1l0.1-8.5c-0.4-5.1-5.3-7.9-9.8-5.6C76.9,14.5,76.2,15.3,75.2,15.4z"/>
<path class="st1" d="M74.4,15.4c-1.9,0.2-2.6-2.5-0.5-4.3c6.8-6,17.1-3.3,19.8,5.4c0,5.6,0,9.3,0.1,14.4c0,2.5,0.4,4.3-1.6,3.5
	c-2.4-1-5.5-3.2-5.4-6.1l0.1-8.5c-0.4-5.1-5.3-7.9-9.8-5.6C76.1,14.5,75.4,15.3,74.4,15.4z"/>
<linearGradient id="SVGID_13_" gradientUnits="userSpaceOnUse" x1="83.2181" y1="-239.5779" x2="83.2181" y2="-212.8221" gradientTransform="matrix(1 0 0 -1 0 -205)">
	<stop  offset="0" style="stop-color:#2581C4"/>
	<stop  offset="1" style="stop-color:#2581C4;stop-opacity:0"/>
</linearGradient>
<path class="st16" d="M93.7,16.5C91,7.8,80.7,5,73.9,11.1c-2,1.8-1.4,4.5,0.5,4.3c1-0.1,1.7-0.8,2.6-1.3c4.5-2.3,9.4,0.6,9.8,5.6
	l-0.1,8.5c-0.1,3,3,5.1,5.4,6.2c1.9,0.8,1.6-1,1.6-3.5C93.7,25.7,93.7,22.1,93.7,16.5z"/>
<path class="st17" d="M96.9,13.5c2,2.5,3,5.6,3,8.8c-0.2,3.8-1.9,6-3,7.6c-2.6,3.8,0.3,3.8,3.4,3c3.1-0.8,5.5-3,6.8-8.7
	c0.7-3,2-7.2,5.4-8.3c5.9-2,7,7.6,4.8,11c-1.2,1.8-3,3.3-7.5,2.5c-2.2,0.2-1.5,4.9,6.8,3.8c8.7-1.1,13.6-13.8,5.2-20.2
	c-5.8-4.3-11.6-3.3-16.3,2.1c-3.8-3.7-4.1-4.8-7.2-4.6C94.2,10.8,95.7,11.8,96.9,13.5z"/>
<path class="st1" d="M96.2,13.5c2,2.5,3,5.6,3,8.8c-0.2,3.8-1.9,6-3,7.6c-2.6,3.8,0.3,3.8,3.4,3c3.1-0.8,5.5-3,6.8-8.7
	c0.7-3,2-7.2,5.4-8.3c5.9-2,7,7.6,4.8,11c-1.2,1.8-3,3.3-7.5,2.5c-2.2,0.2-1.5,4.9,6.8,3.8c8.7-1.1,13.6-13.8,5.2-20.2
	c-5.8-4.3-11.6-3.3-16.3,2.1c-3.8-3.7-4.1-4.8-7.2-4.6C93.4,10.8,94.9,11.8,96.2,13.5z"/>
<linearGradient id="SVGID_14_" gradientUnits="userSpaceOnUse" x1="110.1379" y1="-238.3075" x2="110.1379" y2="-215.2709" gradientTransform="matrix(1 0 0 -1 0 -205)">
	<stop  offset="0" style="stop-color:#2581C4"/>
	<stop  offset="1" style="stop-color:#2581C4;stop-opacity:0"/>
</linearGradient>
<path class="st18" d="M121.1,13c-5.8-4.3-11.6-3.3-16.3,2.1c-3.8-3.7-4.1-4.8-7.2-4.6c-4.1,0.4-2.6,1.3-1.4,3c2,2.5,3,5.6,3,8.8
	c-0.2,3.8-1.9,6-3,7.6c-2.6,3.8,0.3,3.8,3.4,3c3.1-0.8,5.5-3,6.8-8.7c0.7-3,2-7.2,5.4-8.3c5.9-2,7,7.6,4.8,11
	c-1.2,1.8-3,3.3-7.5,2.5c-2.2,0.2-1.5,4.9,6.8,3.8C124.5,32,129.5,19.3,121.1,13z"/>
<path class="st0" d="M129.6,15.2c-0.6,0.4-1.2,0.5-2.2-0.3c-1-0.8-1.5-1.9,0.4-3.3c7.2-5.5,18.1-3,21,5c0,5.2,0.1,9.3,0.2,14
	c0,2.3,0.4,4-1.7,3.2c-2.6-0.9-5.8-2.4-5.8-5.7l0.1-8.6C141.1,13,134.7,11.8,129.6,15.2L129.6,15.2z M134.9,23.2
	c-0.7-6.2-8-5.9-8.4-0.2v9.6c0,2.2-0.2,2.5,1.8,2c5.1-1.3,6.6-3.9,6.7-5.6L134.9,23.2L134.9,23.2z"/>
<path class="st1" d="M128.8,15.2c-0.6,0.4-1.2,0.5-2.2-0.3c-1-0.8-1.5-1.9,0.4-3.3c7.2-5.5,18.1-3,21,5c0,5.2,0.1,9.3,0.2,14
	c0,2.3,0.4,4-1.7,3.2c-2.6-0.9-5.8-2.4-5.8-5.7l0.1-8.6C140.3,13,133.9,11.8,128.8,15.2L128.8,15.2L128.8,15.2z M134.1,23.2
	c-0.7-6.2-8-5.9-8.4-0.2v9.6c0,2.2-0.2,2.5,1.8,2c5.1-1.3,6.6-3.9,6.7-5.6L134.1,23.2L134.1,23.2z"/>
<linearGradient id="SVGID_15_" gradientUnits="userSpaceOnUse" x1="129.906" y1="-239.6703" x2="129.906" y2="-223.588" gradientTransform="matrix(1 0 0 -1 0 -205)">
	<stop  offset="0" style="stop-color:#2581C4"/>
	<stop  offset="1" style="stop-color:#2581C4;stop-opacity:0"/>
</linearGradient>
<path class="st19" d="M125.7,22.9v9.6c0,2.2-0.2,2.5,1.8,2c5.1-1.3,6.6-3.9,6.7-5.6v-5.7C133.4,17,126.1,17.2,125.7,22.9z"/>
<linearGradient id="SVGID_16_" gradientUnits="userSpaceOnUse" x1="136.9035" y1="-239.0286" x2="136.9035" y2="-213.6506" gradientTransform="matrix(1 0 0 -1 0 -205)">
	<stop  offset="0" style="stop-color:#2581C4"/>
	<stop  offset="1" style="stop-color:#2581C4;stop-opacity:0"/>
</linearGradient>
<path class="st20" d="M148.1,30.6c0-4.8-0.1-8.9-0.2-14c-2.8-8-13.8-10.5-21-5c-1.9,1.4-1.4,2.5-0.4,3.3c1,0.8,1.6,0.7,2.2,0.3
	c5.1-3.4,11.5-2.2,11.9,4.4l-0.1,8.6c0,3.2,3.2,4.7,5.8,5.7C148.5,34.6,148.1,32.9,148.1,30.6z"/>
<path class="st0" d="M108.1,35.3c-0.1,2.2-0.1,4.5,0,6.7c0.1,1.4,1.1,1.6,2.8,1.4c6.2-0.6,10.3,0.1,11,3.7c0.9,4.5-3.2,6.5-5.7,9.6
	c-3.7,4.4,1.5,4.4,4.3,3.1c6.1-2.8,11.3-7.4,8.4-14.5c-1.7-3.9-6.1-6.2-12.1-6.4c-1.2-3.1-2.9-5.2-5.7-5.8
	C107.9,32.3,108.3,33,108.1,35.3z"/>
<path class="st1" d="M107.4,35.3c-0.1,2.2-0.1,4.5,0,6.7c0.1,1.4,1.1,1.6,2.8,1.4c6.2-0.6,10.3,0.1,11,3.7c0.9,4.5-3.2,6.5-5.7,9.6
	c-3.7,4.4,1.5,4.4,4.3,3.1c6.1-2.8,11.3-7.4,8.4-14.5c-1.7-3.9-6.1-6.2-12.1-6.4c-1.2-3.1-2.9-5.2-5.7-5.8
	C107.1,32.3,107.5,33,107.4,35.3z"/>
<linearGradient id="SVGID_17_" gradientUnits="userSpaceOnUse" x1="118.1311" y1="-265.5558" x2="118.1311" y2="-237.7585" gradientTransform="matrix(1 0 0 -1 0 -205)">
	<stop  offset="0" style="stop-color:#2581C4"/>
	<stop  offset="1" style="stop-color:#2581C4;stop-opacity:0"/>
</linearGradient>
<path class="st21" d="M107.4,35.3c-0.1,2.2-0.1,4.5,0,6.7c0.1,1.4,1.1,1.6,2.8,1.4c6.2-0.6,10.3,0.1,11,3.7c0.9,4.5-3.2,6.5-5.7,9.6
	c-3.7,4.4,1.5,4.4,4.3,3.1c6.1-2.8,11.3-7.4,8.4-14.5c-1.7-3.9-6.1-6.2-12.1-6.4c-1.2-3.1-2.9-5.2-5.7-5.8
	C107.1,32.3,107.5,33,107.4,35.3z"/>
</svg>
