<?xml version="1.0" encoding="utf-8"?>
<!-- Generator: Adobe Illustrator 19.2.0, SVG Export Plug-In . SVG Version: 6.00 Build 0)  -->
<svg version="1.1" id="Layer_3" xmlns="http://www.w3.org/2000/svg" xmlns:xlink="http://www.w3.org/1999/xlink" x="0px" y="0px"
	 viewBox="0 0 66.2 54" style="enable-background:new 0 0 66.2 54;" xml:space="preserve">
<style type="text/css">
	.st0{fill:#113757;}
	.st1{fill:#1BA5DF;}
</style>
<g>
	<g>
		<path class="st0" d="M39.3,34.1c-0.4,0.2-2.8,1.9-6,1.9c-3.2,0-5.7-1.7-6-1.9L0,15.1v30.6C0,50.2,3.8,54,8.3,54h49.5
			c4.5,0,8.3-3.8,8.3-8.3V15.1L39.3,34.1z"/>
	</g>
	<g>
		<g>
			<path class="st1" d="M62.1,0H54H62.1C62.1,0,62.1,0,62.1,0z"/>
			<path class="st1" d="M62.1,0L54,0H11.7H4.1c-2.2,0-4,1.8-4,4v1.1C0.9,5.8,1.8,6.5,2.5,7l26.8,19.5c1.9,1.3,5.2,1.3,7.2,0L63.1,7
				c0.8-0.6,2-1.3,3-2.1V4C66.1,1.8,64.3,0,62.1,0z"/>
		</g>
	</g>
</g>
</svg>
