<?xml version="1.0" standalone="no"?>
<!DOCTYPE svg PUBLIC "-//W3C//DTD SVG 20010904//EN"
 "http://www.w3.org/TR/2001/REC-SVG-20010904/DTD/svg10.dtd">
<svg version="1.0" xmlns="http://www.w3.org/2000/svg"
 width="2120.000000pt" height="2120.000000pt" viewBox="0 0 2120.000000 2120.000000"
 preserveAspectRatio="xMidYMid meet">
<metadata>
Created by potrace 1.11, written by Peter Selinger 2001-2013
</metadata>
<g transform="translate(0.000000,2120.000000) scale(0.100000,-0.100000)"
fill="#000000" stroke="none">
<path d="M10539 21178 c-15 -13 -38 -41 -53 -64 -22 -34 -114 -272 -201 -519
-14 -38 -55 -153 -92 -254 l-68 -185 -60 -3 c-97 -6 -191 -43 -233 -93 -29
-34 -52 -100 -53 -151 -1 -91 14 -125 172 -396 66 -114 128 -221 136 -236 13
-26 12 -43 -17 -190 -18 -89 -34 -171 -36 -182 -2 -11 -15 -72 -30 -135 -14
-63 -27 -122 -29 -131 -2 -9 -8 -36 -15 -60 -6 -24 -16 -60 -20 -79 -26 -102
-114 -424 -132 -480 -120 -385 -264 -793 -333 -945 -8 -16 -30 -70 -50 -120
-146 -358 -419 -890 -643 -1255 -122 -198 -341 -530 -422 -640 -57 -77 -237
-308 -250 -320 -3 -3 -30 -34 -60 -70 -30 -36 -57 -67 -60 -70 -3 -3 -39 -43
-80 -90 -137 -154 -348 -370 -536 -549 -142 -133 -171 -160 -284 -256 -58 -50
-110 -94 -116 -100 -6 -5 -30 -26 -54 -45 -24 -19 -58 -47 -75 -61 -60 -51
-343 -259 -353 -259 -6 0 -12 -4 -14 -9 -3 -9 -203 -141 -214 -141 -3 0 -18
-8 -32 -19 -15 -10 -47 -30 -72 -44 -25 -13 -112 -64 -195 -112 -142 -81 -448
-238 -580 -296 -105 -47 -280 -121 -290 -123 -5 -2 -23 -9 -40 -15 -90 -38
-304 -112 -485 -167 -98 -30 -146 -44 -240 -68 -125 -32 -188 -49 -200 -51
-120 -27 -198 -42 -250 -51 -19 -3 -51 -9 -70 -14 -36 -9 -209 -36 -290 -45
-25 -3 -52 -7 -60 -10 -8 -2 -46 -6 -85 -10 -38 -3 -86 -8 -105 -10 -42 -5
-162 -15 -250 -20 -36 -3 -189 -7 -340 -9 -377 -7 -467 -17 -621 -67 -411
-134 -410 -509 4 -1023 44 -54 87 -107 96 -116 9 -9 50 -54 91 -100 41 -46 89
-98 105 -115 17 -18 73 -79 125 -135 52 -57 106 -114 119 -129 401 -435 552
-575 776 -716 80 -51 342 -185 360 -185 4 0 21 -7 38 -14 163 -75 564 -177
792 -202 33 -3 69 -8 80 -10 11 -2 65 -7 120 -11 131 -8 11563 -8 11678 1 48
3 102 8 120 11 18 2 55 7 82 10 192 23 462 85 635 146 47 16 90 31 95 33 6 2
21 8 35 13 14 6 50 21 80 33 92 37 270 130 375 198 190 122 290 214 625 571
69 74 141 150 160 171 19 20 76 81 125 135 50 54 105 114 124 134 18 20 61 67
95 105 33 38 71 81 84 95 107 119 248 327 302 445 56 121 73 198 68 305 -7
138 -47 208 -161 282 -74 48 -147 75 -262 99 -130 26 -186 30 -518 35 -164 3
-310 7 -325 9 -15 3 -71 7 -126 11 -54 4 -106 8 -115 10 -9 1 -51 6 -94 10
-43 3 -88 8 -100 10 -12 2 -38 6 -57 9 -180 25 -203 28 -431 71 -55 11 -226
49 -294 66 -44 12 -87 22 -95 24 -171 39 -708 222 -904 309 -371 164 -571 267
-946 488 -251 147 -557 365 -780 554 -252 214 -362 316 -590 544 -518 517
-766 829 -1177 1478 -57 90 -103 165 -103 168 0 2 -18 33 -40 69 -233 381
-534 1021 -727 1544 -35 95 -151 432 -158 461 -2 8 -21 69 -41 135 -20 66 -37
125 -39 130 -1 6 -5 17 -8 25 -6 15 -74 269 -82 305 -2 11 -15 65 -29 120 -23
95 -74 317 -82 360 -2 11 -10 52 -18 90 -19 94 -37 186 -40 210 -2 11 11 42
27 70 16 27 39 66 50 85 10 19 53 93 94 163 41 71 87 154 103 185 25 53 31 71
45 142 9 45 -15 132 -48 172 -17 21 -53 49 -81 63 -49 24 -162 46 -198 39 -13
-2 -22 11 -36 49 -11 29 -81 223 -157 432 -152 421 -180 487 -224 529 -41 39
-105 46 -142 14z"/>
<path d="M4290 4227 l0 -4227 6313 2 6312 3 0 4210 c1 2316 -1 4217 -3 4225
-3 13 -712 15 -6313 15 l-6309 0 0 -4228z m2641 3046 c260 -103 480 -365 662
-791 73 -170 181 -555 212 -757 33 -221 41 -282 50 -405 3 -47 8 -103 12 -125
3 -22 6 -473 7 -1002 l2 -963 -71 -1 c-38 0 -551 -1 -1140 -1 l-1070 0 0 948
c0 809 6 1119 20 1194 2 8 6 49 10 90 4 41 8 82 10 90 2 14 11 68 21 135 89
584 323 1131 598 1400 117 113 245 190 356 211 13 3 26 7 29 9 2 3 52 3 110 2
90 -3 117 -8 182 -34z m3798 22 c206 -49 397 -213 566 -485 138 -223 259 -539
336 -875 27 -120 23 -101 32 -156 11 -67 17 -101 22 -129 3 -14 7 -47 10 -75
3 -27 8 -61 10 -75 31 -179 38 -430 39 -1384 1 -879 1 -886 -19 -887 -21 0
-2230 0 -2253 1 -11 0 -13 175 -9 998 3 548 7 1017 10 1042 2 25 7 77 11 115
4 39 9 81 11 95 2 14 9 63 15 109 6 47 22 140 35 207 14 67 26 133 29 146 7
42 75 281 99 353 76 222 183 444 284 590 156 227 341 371 528 414 63 14 174
12 244 -4z m3870 0 c420 -99 790 -710 937 -1545 8 -47 17 -96 19 -110 13 -74
31 -228 40 -350 4 -47 9 -105 11 -130 7 -65 7 -1920 1 -1927 -5 -4 -2091 -8
-2250 -4 l-28 1 4 1013 c2 556 6 1023 9 1037 4 14 9 57 13 97 9 104 23 225 31
258 2 11 6 36 8 55 4 30 12 71 40 217 26 131 114 415 174 563 188 464 457 763
747 829 62 14 174 12 244 -4z m-7383 -5277 c51 -45 451 -446 475 -476 21 -28
25 -82 7 -115 -22 -42 -494 -506 -522 -513 -70 -17 -83 -8 -332 240 -130 129
-245 248 -255 263 -21 31 -25 84 -9 113 10 18 419 431 485 489 50 43 100 43
151 -1z m2289 16 c45 -29 500 -495 509 -520 22 -65 8 -84 -247 -336 -132 -132
-250 -246 -261 -254 -11 -8 -40 -14 -65 -14 l-44 0 -252 251 c-175 174 -255
261 -262 284 -20 64 -1 90 247 338 128 128 244 240 259 249 32 22 84 23 116 2z
m2557 -240 c268 -268 284 -291 258 -354 -11 -27 -407 -433 -490 -503 -24 -21
-42 -27 -77 -27 l-46 0 -254 253 c-247 245 -270 273 -266 325 0 6 1 19 2 27 1
18 463 489 506 517 22 14 42 18 74 15 42 -5 53 -14 293 -253z m2056 242 c29
-16 512 -497 513 -512 0 -5 2 -17 4 -27 10 -51 -16 -84 -268 -335 l-253 -252
-44 0 c-25 0 -51 4 -58 8 -41 26 -497 492 -509 520 -28 67 -15 86 249 348 134
133 252 246 263 252 28 16 71 15 103 -2z"/>
</g>
</svg>
